<mxfile host="app.diagrams.net" agent="Mozilla/5.0 (Windows NT 10.0; Win64; x64) AppleWebKit/537.36 (KHTML, like Gecko) Chrome/131.0.0.0 Safari/537.36" version="25.0.0">
  <diagram name="1 oldal" id="FgGTxvgx-G_bSuqOOrqO">
    <mxGraphModel dx="1434" dy="780" grid="1" gridSize="10" guides="1" tooltips="1" connect="1" arrows="1" fold="1" page="1" pageScale="1" pageWidth="827" pageHeight="1169" background="#FFFFFF" math="0" shadow="0">
      <root>
        <mxCell id="0" />
        <mxCell id="1" parent="0" />
        <mxCell id="8PUucR8cHvh3yqc-Yqy7-25" value="VásárlóID&lt;hr&gt;" style="ellipse;whiteSpace=wrap;html=1;" parent="1" vertex="1">
          <mxGeometry y="245" width="80" height="40" as="geometry" />
        </mxCell>
        <mxCell id="Ghe9ysZ_cyjWUowk5B5c-4" value="Vásárló" style="rounded=0;whiteSpace=wrap;html=1;" parent="1" vertex="1">
          <mxGeometry x="106" y="240" width="120" height="50" as="geometry" />
        </mxCell>
        <mxCell id="Ghe9ysZ_cyjWUowk5B5c-5" value="Vezetéknév" style="ellipse;whiteSpace=wrap;html=1;" parent="1" vertex="1">
          <mxGeometry x="26" y="100" width="80" height="40" as="geometry" />
        </mxCell>
        <mxCell id="Ghe9ysZ_cyjWUowk5B5c-6" value="Keresztnév" style="ellipse;whiteSpace=wrap;html=1;" parent="1" vertex="1">
          <mxGeometry x="220" y="100" width="80" height="40" as="geometry" />
        </mxCell>
        <mxCell id="Ghe9ysZ_cyjWUowk5B5c-7" value="Név" style="ellipse;whiteSpace=wrap;html=1;" parent="1" vertex="1">
          <mxGeometry x="126" y="180" width="80" height="40" as="geometry" />
        </mxCell>
        <mxCell id="Ghe9ysZ_cyjWUowk5B5c-9" value="Középső név" style="ellipse;whiteSpace=wrap;html=1;" parent="1" vertex="1">
          <mxGeometry x="126" y="100" width="80" height="40" as="geometry" />
        </mxCell>
        <mxCell id="Ghe9ysZ_cyjWUowk5B5c-10" value="Email" style="ellipse;whiteSpace=wrap;html=1;" parent="1" vertex="1">
          <mxGeometry x="50" y="320" width="80" height="40" as="geometry" />
        </mxCell>
        <mxCell id="Ghe9ysZ_cyjWUowk5B5c-11" value="Telefonszám" style="ellipse;whiteSpace=wrap;html=1;" parent="1" vertex="1">
          <mxGeometry x="195" y="320" width="80" height="40" as="geometry" />
        </mxCell>
        <mxCell id="Ghe9ysZ_cyjWUowk5B5c-13" value="" style="ellipse;whiteSpace=wrap;html=1;fillColor=none;" parent="1" vertex="1">
          <mxGeometry x="190" y="315" width="90" height="50" as="geometry" />
        </mxCell>
        <mxCell id="Ghe9ysZ_cyjWUowk5B5c-14" value="Rendelés" style="rounded=0;whiteSpace=wrap;html=1;" parent="1" vertex="1">
          <mxGeometry x="380" y="240" width="120" height="50" as="geometry" />
        </mxCell>
        <mxCell id="Ghe9ysZ_cyjWUowk5B5c-15" value="Termék" style="rounded=0;whiteSpace=wrap;html=1;" parent="1" vertex="1">
          <mxGeometry x="650" y="240" width="120" height="50" as="geometry" />
        </mxCell>
        <mxCell id="Ghe9ysZ_cyjWUowk5B5c-16" value="Vezető" style="rounded=0;whiteSpace=wrap;html=1;" parent="1" vertex="1">
          <mxGeometry x="380" y="470" width="120" height="50" as="geometry" />
        </mxCell>
        <mxCell id="Ghe9ysZ_cyjWUowk5B5c-17" value="Üzlet" style="rounded=0;whiteSpace=wrap;html=1;" parent="1" vertex="1">
          <mxGeometry x="650" y="470" width="120" height="50" as="geometry" />
        </mxCell>
        <mxCell id="Ghe9ysZ_cyjWUowk5B5c-30" style="edgeStyle=orthogonalEdgeStyle;rounded=0;orthogonalLoop=1;jettySize=auto;html=1;exitX=1;exitY=0.5;exitDx=0;exitDy=0;entryX=0;entryY=0.5;entryDx=0;entryDy=0;" parent="1" source="Ghe9ysZ_cyjWUowk5B5c-18" target="Ghe9ysZ_cyjWUowk5B5c-14" edge="1">
          <mxGeometry relative="1" as="geometry" />
        </mxCell>
        <mxCell id="Ghe9ysZ_cyjWUowk5B5c-31" style="edgeStyle=orthogonalEdgeStyle;rounded=0;orthogonalLoop=1;jettySize=auto;html=1;exitX=1;exitY=0.5;exitDx=0;exitDy=0;" parent="1" source="Ghe9ysZ_cyjWUowk5B5c-18" edge="1">
          <mxGeometry relative="1" as="geometry">
            <mxPoint x="370" y="265" as="targetPoint" />
          </mxGeometry>
        </mxCell>
        <mxCell id="Ghe9ysZ_cyjWUowk5B5c-33" style="edgeStyle=orthogonalEdgeStyle;rounded=0;orthogonalLoop=1;jettySize=auto;html=1;exitX=0;exitY=0.5;exitDx=0;exitDy=0;entryX=1;entryY=0.5;entryDx=0;entryDy=0;" parent="1" source="Ghe9ysZ_cyjWUowk5B5c-18" target="Ghe9ysZ_cyjWUowk5B5c-4" edge="1">
          <mxGeometry relative="1" as="geometry" />
        </mxCell>
        <mxCell id="Ghe9ysZ_cyjWUowk5B5c-18" value="V-R" style="rhombus;whiteSpace=wrap;html=1;" parent="1" vertex="1">
          <mxGeometry x="270" y="240" width="60" height="50" as="geometry" />
        </mxCell>
        <mxCell id="Ghe9ysZ_cyjWUowk5B5c-34" style="edgeStyle=orthogonalEdgeStyle;rounded=0;orthogonalLoop=1;jettySize=auto;html=1;exitX=0;exitY=0.5;exitDx=0;exitDy=0;entryX=1;entryY=0.5;entryDx=0;entryDy=0;" parent="1" source="Ghe9ysZ_cyjWUowk5B5c-19" target="Ghe9ysZ_cyjWUowk5B5c-14" edge="1">
          <mxGeometry relative="1" as="geometry" />
        </mxCell>
        <mxCell id="Ghe9ysZ_cyjWUowk5B5c-35" style="edgeStyle=orthogonalEdgeStyle;rounded=0;orthogonalLoop=1;jettySize=auto;html=1;exitX=0;exitY=0.5;exitDx=0;exitDy=0;" parent="1" source="Ghe9ysZ_cyjWUowk5B5c-19" edge="1">
          <mxGeometry relative="1" as="geometry">
            <mxPoint x="510" y="265" as="targetPoint" />
          </mxGeometry>
        </mxCell>
        <mxCell id="Ghe9ysZ_cyjWUowk5B5c-36" style="edgeStyle=orthogonalEdgeStyle;rounded=0;orthogonalLoop=1;jettySize=auto;html=1;exitX=1;exitY=0.5;exitDx=0;exitDy=0;entryX=0;entryY=0.5;entryDx=0;entryDy=0;" parent="1" source="Ghe9ysZ_cyjWUowk5B5c-19" target="Ghe9ysZ_cyjWUowk5B5c-15" edge="1">
          <mxGeometry relative="1" as="geometry" />
        </mxCell>
        <mxCell id="Ghe9ysZ_cyjWUowk5B5c-37" style="edgeStyle=orthogonalEdgeStyle;rounded=0;orthogonalLoop=1;jettySize=auto;html=1;exitX=1;exitY=0.5;exitDx=0;exitDy=0;" parent="1" source="Ghe9ysZ_cyjWUowk5B5c-19" edge="1">
          <mxGeometry relative="1" as="geometry">
            <mxPoint x="640" y="265" as="targetPoint" />
          </mxGeometry>
        </mxCell>
        <mxCell id="Ghe9ysZ_cyjWUowk5B5c-19" value="R-T" style="rhombus;whiteSpace=wrap;html=1;" parent="1" vertex="1">
          <mxGeometry x="550" y="240" width="60" height="50" as="geometry" />
        </mxCell>
        <mxCell id="Ghe9ysZ_cyjWUowk5B5c-52" style="edgeStyle=orthogonalEdgeStyle;rounded=0;orthogonalLoop=1;jettySize=auto;html=1;exitX=1;exitY=0.5;exitDx=0;exitDy=0;entryX=0;entryY=0.5;entryDx=0;entryDy=0;" parent="1" source="Ghe9ysZ_cyjWUowk5B5c-21" target="Ghe9ysZ_cyjWUowk5B5c-17" edge="1">
          <mxGeometry relative="1" as="geometry" />
        </mxCell>
        <mxCell id="Ghe9ysZ_cyjWUowk5B5c-53" style="edgeStyle=orthogonalEdgeStyle;rounded=0;orthogonalLoop=1;jettySize=auto;html=1;exitX=0;exitY=0.5;exitDx=0;exitDy=0;entryX=1;entryY=0.5;entryDx=0;entryDy=0;" parent="1" source="Ghe9ysZ_cyjWUowk5B5c-21" target="Ghe9ysZ_cyjWUowk5B5c-16" edge="1">
          <mxGeometry relative="1" as="geometry" />
        </mxCell>
        <mxCell id="Ghe9ysZ_cyjWUowk5B5c-21" value="V-Ü" style="rhombus;whiteSpace=wrap;html=1;" parent="1" vertex="1">
          <mxGeometry x="550" y="470" width="60" height="50" as="geometry" />
        </mxCell>
        <mxCell id="Ghe9ysZ_cyjWUowk5B5c-22" value="" style="endArrow=none;html=1;rounded=0;entryX=0.5;entryY=1;entryDx=0;entryDy=0;exitX=0.5;exitY=0;exitDx=0;exitDy=0;" parent="1" source="Ghe9ysZ_cyjWUowk5B5c-4" target="Ghe9ysZ_cyjWUowk5B5c-7" edge="1">
          <mxGeometry width="50" height="50" relative="1" as="geometry">
            <mxPoint x="141" y="260" as="sourcePoint" />
            <mxPoint x="191" y="210" as="targetPoint" />
          </mxGeometry>
        </mxCell>
        <mxCell id="Ghe9ysZ_cyjWUowk5B5c-23" value="" style="endArrow=none;html=1;rounded=0;entryX=0;entryY=1;entryDx=0;entryDy=0;" parent="1" target="Ghe9ysZ_cyjWUowk5B5c-6" edge="1">
          <mxGeometry width="50" height="50" relative="1" as="geometry">
            <mxPoint x="166" y="180" as="sourcePoint" />
            <mxPoint x="250" y="140" as="targetPoint" />
          </mxGeometry>
        </mxCell>
        <mxCell id="Ghe9ysZ_cyjWUowk5B5c-24" value="" style="endArrow=none;html=1;rounded=0;entryX=1;entryY=1;entryDx=0;entryDy=0;exitX=0.5;exitY=0;exitDx=0;exitDy=0;" parent="1" source="Ghe9ysZ_cyjWUowk5B5c-7" target="Ghe9ysZ_cyjWUowk5B5c-5" edge="1">
          <mxGeometry width="50" height="50" relative="1" as="geometry">
            <mxPoint x="137" y="200" as="sourcePoint" />
            <mxPoint x="106" y="160" as="targetPoint" />
          </mxGeometry>
        </mxCell>
        <mxCell id="Ghe9ysZ_cyjWUowk5B5c-25" value="" style="endArrow=none;html=1;rounded=0;entryX=0.5;entryY=1;entryDx=0;entryDy=0;exitX=0.5;exitY=0;exitDx=0;exitDy=0;" parent="1" source="Ghe9ysZ_cyjWUowk5B5c-7" target="Ghe9ysZ_cyjWUowk5B5c-9" edge="1">
          <mxGeometry width="50" height="50" relative="1" as="geometry">
            <mxPoint x="160" y="180" as="sourcePoint" />
            <mxPoint x="210" y="130" as="targetPoint" />
          </mxGeometry>
        </mxCell>
        <mxCell id="Ghe9ysZ_cyjWUowk5B5c-28" value="" style="endArrow=none;html=1;rounded=0;exitX=1;exitY=0.5;exitDx=0;exitDy=0;entryX=0;entryY=0.5;entryDx=0;entryDy=0;" parent="1" source="8PUucR8cHvh3yqc-Yqy7-25" target="Ghe9ysZ_cyjWUowk5B5c-4" edge="1">
          <mxGeometry width="50" height="50" relative="1" as="geometry">
            <mxPoint x="120" y="340" as="sourcePoint" />
            <mxPoint x="170" y="290" as="targetPoint" />
          </mxGeometry>
        </mxCell>
        <mxCell id="Ghe9ysZ_cyjWUowk5B5c-42" style="edgeStyle=orthogonalEdgeStyle;rounded=0;orthogonalLoop=1;jettySize=auto;html=1;exitX=0.5;exitY=0;exitDx=0;exitDy=0;entryX=0.5;entryY=1;entryDx=0;entryDy=0;" parent="1" source="Ghe9ysZ_cyjWUowk5B5c-41" target="Ghe9ysZ_cyjWUowk5B5c-15" edge="1">
          <mxGeometry relative="1" as="geometry" />
        </mxCell>
        <mxCell id="Ghe9ysZ_cyjWUowk5B5c-43" style="edgeStyle=orthogonalEdgeStyle;rounded=0;orthogonalLoop=1;jettySize=auto;html=1;exitX=0.5;exitY=0;exitDx=0;exitDy=0;" parent="1" source="Ghe9ysZ_cyjWUowk5B5c-41" edge="1">
          <mxGeometry relative="1" as="geometry">
            <mxPoint x="710" y="300" as="targetPoint" />
          </mxGeometry>
        </mxCell>
        <mxCell id="Ghe9ysZ_cyjWUowk5B5c-44" style="edgeStyle=orthogonalEdgeStyle;rounded=0;orthogonalLoop=1;jettySize=auto;html=1;exitX=0.5;exitY=1;exitDx=0;exitDy=0;entryX=0.5;entryY=0;entryDx=0;entryDy=0;" parent="1" source="Ghe9ysZ_cyjWUowk5B5c-41" target="Ghe9ysZ_cyjWUowk5B5c-17" edge="1">
          <mxGeometry relative="1" as="geometry" />
        </mxCell>
        <mxCell id="Ghe9ysZ_cyjWUowk5B5c-45" style="edgeStyle=orthogonalEdgeStyle;rounded=0;orthogonalLoop=1;jettySize=auto;html=1;exitX=0.5;exitY=1;exitDx=0;exitDy=0;" parent="1" source="Ghe9ysZ_cyjWUowk5B5c-41" edge="1">
          <mxGeometry relative="1" as="geometry">
            <mxPoint x="710" y="470" as="targetPoint" />
          </mxGeometry>
        </mxCell>
        <mxCell id="EhB0ElkXr6JH6N3jiSgY-1" style="edgeStyle=orthogonalEdgeStyle;rounded=0;orthogonalLoop=1;jettySize=auto;html=1;exitX=0.5;exitY=1;exitDx=0;exitDy=0;" parent="1" source="Ghe9ysZ_cyjWUowk5B5c-41" edge="1">
          <mxGeometry relative="1" as="geometry">
            <mxPoint x="710" y="460" as="targetPoint" />
          </mxGeometry>
        </mxCell>
        <mxCell id="Ghe9ysZ_cyjWUowk5B5c-41" value="T-Ü" style="rhombus;whiteSpace=wrap;html=1;" parent="1" vertex="1">
          <mxGeometry x="680" y="355" width="60" height="50" as="geometry" />
        </mxCell>
        <mxCell id="Ghe9ysZ_cyjWUowk5B5c-54" value="Összeg" style="ellipse;whiteSpace=wrap;html=1;" parent="1" vertex="1">
          <mxGeometry x="311" y="100" width="80" height="40" as="geometry" />
        </mxCell>
        <mxCell id="Ghe9ysZ_cyjWUowk5B5c-55" value="Dátum" style="ellipse;whiteSpace=wrap;html=1;" parent="1" vertex="1">
          <mxGeometry x="400" y="100" width="80" height="40" as="geometry" />
        </mxCell>
        <mxCell id="Ghe9ysZ_cyjWUowk5B5c-56" value="RendelésID&lt;hr&gt;" style="ellipse;whiteSpace=wrap;html=1;" parent="1" vertex="1">
          <mxGeometry x="400" y="320" width="80" height="40" as="geometry" />
        </mxCell>
        <mxCell id="Ghe9ysZ_cyjWUowk5B5c-57" value="Mennyiség" style="ellipse;whiteSpace=wrap;html=1;" parent="1" vertex="1">
          <mxGeometry x="490" y="100" width="80" height="40" as="geometry" />
        </mxCell>
        <mxCell id="Ghe9ysZ_cyjWUowk5B5c-58" value="Név" style="ellipse;whiteSpace=wrap;html=1;" parent="1" vertex="1">
          <mxGeometry x="670" y="100" width="80" height="40" as="geometry" />
        </mxCell>
        <mxCell id="Ghe9ysZ_cyjWUowk5B5c-59" value="Tkód&lt;hr&gt;" style="ellipse;whiteSpace=wrap;html=1;" parent="1" vertex="1">
          <mxGeometry x="800" y="245" width="80" height="40" as="geometry" />
        </mxCell>
        <mxCell id="Ghe9ysZ_cyjWUowk5B5c-60" value="Ár" style="ellipse;whiteSpace=wrap;html=1;" parent="1" vertex="1">
          <mxGeometry x="760" y="100" width="80" height="40" as="geometry" />
        </mxCell>
        <mxCell id="Ghe9ysZ_cyjWUowk5B5c-61" value="Kategória" style="ellipse;whiteSpace=wrap;html=1;" parent="1" vertex="1">
          <mxGeometry x="580" y="100" width="80" height="40" as="geometry" />
        </mxCell>
        <mxCell id="Ghe9ysZ_cyjWUowk5B5c-62" value="Név" style="ellipse;whiteSpace=wrap;html=1;" parent="1" vertex="1">
          <mxGeometry x="580" y="610" width="80" height="40" as="geometry" />
        </mxCell>
        <mxCell id="Ghe9ysZ_cyjWUowk5B5c-63" value="ÜzletID&lt;hr&gt;" style="ellipse;whiteSpace=wrap;html=1;" parent="1" vertex="1">
          <mxGeometry x="800" y="475" width="80" height="40" as="geometry" />
        </mxCell>
        <mxCell id="Ghe9ysZ_cyjWUowk5B5c-64" value="Adószám" style="ellipse;whiteSpace=wrap;html=1;" parent="1" vertex="1">
          <mxGeometry x="760" y="610" width="80" height="40" as="geometry" />
        </mxCell>
        <mxCell id="Ghe9ysZ_cyjWUowk5B5c-68" value="Város" style="ellipse;whiteSpace=wrap;html=1;" parent="1" vertex="1">
          <mxGeometry x="670" y="610" width="80" height="40" as="geometry" />
        </mxCell>
        <mxCell id="Ghe9ysZ_cyjWUowk5B5c-69" value="Név" style="ellipse;whiteSpace=wrap;html=1;" parent="1" vertex="1">
          <mxGeometry x="400" y="550" width="80" height="40" as="geometry" />
        </mxCell>
        <mxCell id="Ghe9ysZ_cyjWUowk5B5c-70" value="Középső név" style="ellipse;whiteSpace=wrap;html=1;" parent="1" vertex="1">
          <mxGeometry x="400" y="610" width="80" height="40" as="geometry" />
        </mxCell>
        <mxCell id="Ghe9ysZ_cyjWUowk5B5c-71" value="Vezetéknév" style="ellipse;whiteSpace=wrap;html=1;" parent="1" vertex="1">
          <mxGeometry x="311" y="610" width="80" height="40" as="geometry" />
        </mxCell>
        <mxCell id="Ghe9ysZ_cyjWUowk5B5c-72" value="Keresztnév" style="ellipse;whiteSpace=wrap;html=1;" parent="1" vertex="1">
          <mxGeometry x="490" y="610" width="80" height="40" as="geometry" />
        </mxCell>
        <mxCell id="Ghe9ysZ_cyjWUowk5B5c-74" value="" style="endArrow=none;html=1;rounded=0;entryX=0.5;entryY=1;entryDx=0;entryDy=0;exitX=0.5;exitY=0;exitDx=0;exitDy=0;" parent="1" source="Ghe9ysZ_cyjWUowk5B5c-14" target="Ghe9ysZ_cyjWUowk5B5c-57" edge="1">
          <mxGeometry width="50" height="50" relative="1" as="geometry">
            <mxPoint x="500" y="240" as="sourcePoint" />
            <mxPoint x="550" y="190" as="targetPoint" />
          </mxGeometry>
        </mxCell>
        <mxCell id="Ghe9ysZ_cyjWUowk5B5c-76" value="" style="endArrow=none;html=1;rounded=0;entryX=0.5;entryY=1;entryDx=0;entryDy=0;" parent="1" target="Ghe9ysZ_cyjWUowk5B5c-55" edge="1">
          <mxGeometry width="50" height="50" relative="1" as="geometry">
            <mxPoint x="440" y="240" as="sourcePoint" />
            <mxPoint x="490" y="190" as="targetPoint" />
          </mxGeometry>
        </mxCell>
        <mxCell id="Ghe9ysZ_cyjWUowk5B5c-77" value="" style="endArrow=none;html=1;rounded=0;entryX=0.5;entryY=1;entryDx=0;entryDy=0;" parent="1" target="Ghe9ysZ_cyjWUowk5B5c-58" edge="1">
          <mxGeometry width="50" height="50" relative="1" as="geometry">
            <mxPoint x="710" y="240" as="sourcePoint" />
            <mxPoint x="760" y="190" as="targetPoint" />
          </mxGeometry>
        </mxCell>
        <mxCell id="Ghe9ysZ_cyjWUowk5B5c-78" value="" style="endArrow=none;html=1;rounded=0;entryX=0.5;entryY=1;entryDx=0;entryDy=0;exitX=0.5;exitY=0;exitDx=0;exitDy=0;" parent="1" source="Ghe9ysZ_cyjWUowk5B5c-15" target="Ghe9ysZ_cyjWUowk5B5c-60" edge="1">
          <mxGeometry width="50" height="50" relative="1" as="geometry">
            <mxPoint x="770" y="240" as="sourcePoint" />
            <mxPoint x="820" y="190" as="targetPoint" />
          </mxGeometry>
        </mxCell>
        <mxCell id="Ghe9ysZ_cyjWUowk5B5c-84" value="" style="endArrow=none;html=1;rounded=0;exitX=0.5;exitY=0;exitDx=0;exitDy=0;entryX=0.5;entryY=1;entryDx=0;entryDy=0;" parent="1" source="Ghe9ysZ_cyjWUowk5B5c-62" target="Ghe9ysZ_cyjWUowk5B5c-17" edge="1">
          <mxGeometry width="50" height="50" relative="1" as="geometry">
            <mxPoint x="600" y="570" as="sourcePoint" />
            <mxPoint x="650" y="520" as="targetPoint" />
          </mxGeometry>
        </mxCell>
        <mxCell id="Ghe9ysZ_cyjWUowk5B5c-85" value="" style="endArrow=none;html=1;rounded=0;exitX=0.5;exitY=0;exitDx=0;exitDy=0;entryX=0.5;entryY=1;entryDx=0;entryDy=0;" parent="1" source="Ghe9ysZ_cyjWUowk5B5c-64" target="Ghe9ysZ_cyjWUowk5B5c-17" edge="1">
          <mxGeometry width="50" height="50" relative="1" as="geometry">
            <mxPoint x="720" y="570" as="sourcePoint" />
            <mxPoint x="770" y="520" as="targetPoint" />
          </mxGeometry>
        </mxCell>
        <mxCell id="Ghe9ysZ_cyjWUowk5B5c-86" value="" style="endArrow=none;html=1;rounded=0;exitX=0.5;exitY=0;exitDx=0;exitDy=0;" parent="1" source="Ghe9ysZ_cyjWUowk5B5c-69" edge="1">
          <mxGeometry width="50" height="50" relative="1" as="geometry">
            <mxPoint x="389" y="570" as="sourcePoint" />
            <mxPoint x="439" y="520" as="targetPoint" />
          </mxGeometry>
        </mxCell>
        <mxCell id="Ghe9ysZ_cyjWUowk5B5c-87" value="" style="endArrow=none;html=1;rounded=0;exitX=0.5;exitY=0;exitDx=0;exitDy=0;entryX=0.5;entryY=1;entryDx=0;entryDy=0;" parent="1" source="Ghe9ysZ_cyjWUowk5B5c-70" target="Ghe9ysZ_cyjWUowk5B5c-69" edge="1">
          <mxGeometry width="50" height="50" relative="1" as="geometry">
            <mxPoint x="389" y="640" as="sourcePoint" />
            <mxPoint x="439" y="590" as="targetPoint" />
          </mxGeometry>
        </mxCell>
        <mxCell id="Ghe9ysZ_cyjWUowk5B5c-90" value="ID&lt;hr&gt;" style="ellipse;whiteSpace=wrap;html=1;" parent="1" vertex="1">
          <mxGeometry x="280" y="475" width="80" height="40" as="geometry" />
        </mxCell>
        <mxCell id="Ghe9ysZ_cyjWUowk5B5c-92" value="" style="ellipse;whiteSpace=wrap;html=1;fillColor=none;" parent="1" vertex="1">
          <mxGeometry x="306" y="395" width="90" height="50" as="geometry" />
        </mxCell>
        <mxCell id="Ghe9ysZ_cyjWUowk5B5c-93" value="Telefonszám" style="ellipse;whiteSpace=wrap;html=1;" parent="1" vertex="1">
          <mxGeometry x="311" y="400" width="80" height="40" as="geometry" />
        </mxCell>
        <mxCell id="Ghe9ysZ_cyjWUowk5B5c-94" value="Email" style="ellipse;whiteSpace=wrap;html=1;" parent="1" vertex="1">
          <mxGeometry x="490" y="400" width="80" height="40" as="geometry" />
        </mxCell>
        <mxCell id="kM7w1tb7QXFGyHpJUpzO-2" value="" style="endArrow=none;html=1;rounded=0;entryX=0.5;entryY=1;entryDx=0;entryDy=0;" parent="1" target="Ghe9ysZ_cyjWUowk5B5c-4" edge="1">
          <mxGeometry width="50" height="50" relative="1" as="geometry">
            <mxPoint x="90" y="320" as="sourcePoint" />
            <mxPoint x="140" y="270" as="targetPoint" />
          </mxGeometry>
        </mxCell>
        <mxCell id="kM7w1tb7QXFGyHpJUpzO-3" value="" style="endArrow=none;html=1;rounded=0;entryX=0.5;entryY=1;entryDx=0;entryDy=0;exitX=0.5;exitY=0;exitDx=0;exitDy=0;" parent="1" source="Ghe9ysZ_cyjWUowk5B5c-71" target="Ghe9ysZ_cyjWUowk5B5c-69" edge="1">
          <mxGeometry width="50" height="50" relative="1" as="geometry">
            <mxPoint x="349" y="610" as="sourcePoint" />
            <mxPoint x="399" y="560" as="targetPoint" />
          </mxGeometry>
        </mxCell>
        <mxCell id="kM7w1tb7QXFGyHpJUpzO-4" value="" style="endArrow=none;html=1;rounded=0;entryX=0.5;entryY=1;entryDx=0;entryDy=0;exitX=0.5;exitY=0;exitDx=0;exitDy=0;" parent="1" source="Ghe9ysZ_cyjWUowk5B5c-72" target="Ghe9ysZ_cyjWUowk5B5c-69" edge="1">
          <mxGeometry width="50" height="50" relative="1" as="geometry">
            <mxPoint x="520" y="610" as="sourcePoint" />
            <mxPoint x="570" y="560" as="targetPoint" />
          </mxGeometry>
        </mxCell>
        <mxCell id="kM7w1tb7QXFGyHpJUpzO-5" value="" style="endArrow=none;html=1;rounded=0;entryX=0;entryY=0.5;entryDx=0;entryDy=0;exitX=1;exitY=0.5;exitDx=0;exitDy=0;" parent="1" source="Ghe9ysZ_cyjWUowk5B5c-17" target="Ghe9ysZ_cyjWUowk5B5c-63" edge="1">
          <mxGeometry width="50" height="50" relative="1" as="geometry">
            <mxPoint x="770" y="500" as="sourcePoint" />
            <mxPoint x="820" y="450" as="targetPoint" />
          </mxGeometry>
        </mxCell>
        <mxCell id="kM7w1tb7QXFGyHpJUpzO-6" value="" style="endArrow=none;html=1;rounded=0;entryX=0;entryY=0.5;entryDx=0;entryDy=0;exitX=1;exitY=0.5;exitDx=0;exitDy=0;" parent="1" source="Ghe9ysZ_cyjWUowk5B5c-15" target="Ghe9ysZ_cyjWUowk5B5c-59" edge="1">
          <mxGeometry width="50" height="50" relative="1" as="geometry">
            <mxPoint x="770" y="270" as="sourcePoint" />
            <mxPoint x="820" y="220" as="targetPoint" />
          </mxGeometry>
        </mxCell>
        <mxCell id="kM7w1tb7QXFGyHpJUpzO-7" value="" style="endArrow=none;html=1;rounded=0;entryX=0;entryY=0.5;entryDx=0;entryDy=0;" parent="1" target="Ghe9ysZ_cyjWUowk5B5c-16" edge="1">
          <mxGeometry width="50" height="50" relative="1" as="geometry">
            <mxPoint x="360" y="495" as="sourcePoint" />
            <mxPoint x="410" y="445" as="targetPoint" />
          </mxGeometry>
        </mxCell>
        <mxCell id="kM7w1tb7QXFGyHpJUpzO-8" value="" style="endArrow=none;html=1;rounded=0;entryX=0.5;entryY=1;entryDx=0;entryDy=0;" parent="1" target="Ghe9ysZ_cyjWUowk5B5c-4" edge="1">
          <mxGeometry width="50" height="50" relative="1" as="geometry">
            <mxPoint x="235" y="315" as="sourcePoint" />
            <mxPoint x="285" y="265" as="targetPoint" />
          </mxGeometry>
        </mxCell>
        <mxCell id="kM7w1tb7QXFGyHpJUpzO-10" value="" style="endArrow=none;html=1;rounded=0;exitX=0.5;exitY=0;exitDx=0;exitDy=0;" parent="1" source="Ghe9ysZ_cyjWUowk5B5c-16" edge="1">
          <mxGeometry width="50" height="50" relative="1" as="geometry">
            <mxPoint x="480" y="490" as="sourcePoint" />
            <mxPoint x="530" y="440" as="targetPoint" />
          </mxGeometry>
        </mxCell>
        <mxCell id="kM7w1tb7QXFGyHpJUpzO-11" value="" style="endArrow=none;html=1;rounded=0;exitX=0.5;exitY=0;exitDx=0;exitDy=0;" parent="1" source="Ghe9ysZ_cyjWUowk5B5c-16" edge="1">
          <mxGeometry width="50" height="50" relative="1" as="geometry">
            <mxPoint x="300" y="495" as="sourcePoint" />
            <mxPoint x="350" y="445" as="targetPoint" />
          </mxGeometry>
        </mxCell>
        <mxCell id="kM7w1tb7QXFGyHpJUpzO-12" value="" style="endArrow=none;html=1;rounded=0;entryX=0.5;entryY=1;entryDx=0;entryDy=0;" parent="1" target="Ghe9ysZ_cyjWUowk5B5c-14" edge="1">
          <mxGeometry width="50" height="50" relative="1" as="geometry">
            <mxPoint x="440" y="320" as="sourcePoint" />
            <mxPoint x="490" y="270" as="targetPoint" />
          </mxGeometry>
        </mxCell>
        <mxCell id="kM7w1tb7QXFGyHpJUpzO-13" value="" style="endArrow=none;html=1;rounded=0;exitX=0.5;exitY=0;exitDx=0;exitDy=0;" parent="1" source="Ghe9ysZ_cyjWUowk5B5c-14" edge="1">
          <mxGeometry width="50" height="50" relative="1" as="geometry">
            <mxPoint x="300" y="190" as="sourcePoint" />
            <mxPoint x="350" y="140" as="targetPoint" />
          </mxGeometry>
        </mxCell>
        <mxCell id="kM7w1tb7QXFGyHpJUpzO-14" value="" style="endArrow=none;html=1;rounded=0;exitX=0.5;exitY=0;exitDx=0;exitDy=0;" parent="1" source="Ghe9ysZ_cyjWUowk5B5c-15" edge="1">
          <mxGeometry width="50" height="50" relative="1" as="geometry">
            <mxPoint x="570" y="190" as="sourcePoint" />
            <mxPoint x="620" y="140" as="targetPoint" />
          </mxGeometry>
        </mxCell>
        <mxCell id="kM7w1tb7QXFGyHpJUpzO-15" value="" style="endArrow=none;html=1;rounded=0;entryX=0.5;entryY=1;entryDx=0;entryDy=0;" parent="1" target="Ghe9ysZ_cyjWUowk5B5c-17" edge="1">
          <mxGeometry width="50" height="50" relative="1" as="geometry">
            <mxPoint x="710" y="610" as="sourcePoint" />
            <mxPoint x="760" y="560" as="targetPoint" />
          </mxGeometry>
        </mxCell>
        <mxCell id="nnFJa-45mtyKF5O1yWwr-1" value="Készlet" style="ellipse;whiteSpace=wrap;html=1;" vertex="1" parent="1">
          <mxGeometry x="800" y="360" width="80" height="40" as="geometry" />
        </mxCell>
        <mxCell id="nnFJa-45mtyKF5O1yWwr-2" value="" style="endArrow=none;html=1;rounded=0;entryX=0;entryY=0.5;entryDx=0;entryDy=0;" edge="1" parent="1" target="nnFJa-45mtyKF5O1yWwr-1">
          <mxGeometry width="50" height="50" relative="1" as="geometry">
            <mxPoint x="740" y="380" as="sourcePoint" />
            <mxPoint x="790" y="330" as="targetPoint" />
          </mxGeometry>
        </mxCell>
      </root>
    </mxGraphModel>
  </diagram>
</mxfile>
